# xmcd
#
# Track frame offsets:
#	150
#	12155
#	24808
#	38497
#	54783
#	68032
#	86428
#	100714
#	115050
#	133258
#	147244
#	162108
#	174160
#	193080
#	206530
#	218785
#	230715
#	243348
#	255952
#	273042
#
# Disc length: 3866 seconds
#
# Revision: 6
# Processed by: cddbd v1.5.2PL0 Copyright (c) Steve Scherf et al.
# Submitted via: audiograbber 1.83.01
#
DISCID=f90f1814
DTITLE=_Various artists - JukeBox-Hits [CD 1_2)
DYEAR=1998
DGENRE=Rock/Pop
TTITLE0=Chris Andrews - Pretty Belinda
TTITLE1=Archies - Sugar, Sugar
TTITLE2=Daniel Boone - Beautiful Sunday
TTITLE3=Flowerpont Men - Let's Go To San Francisco
TTITLE4=Kenny - Hot Lips
TTITLE5=Procol Harum - A Whiter Shade Of Pale
TTITLE6=Two Man Sound - Charlie Brown
TTITLE7=Equals - Viva Bobby Joe
TTITLE8=Oliver Onions - Santa Maria
TTITLE9=Tina Charles - I Love To Love
TTITLE10=David Dundas - Jeans On
TTITLE11=Desmond Dekker - You Can Get It If You Really Want'
TTITLE12=Clout - Save Me
TTITLE13=Lynsey De Paul and Mike Moran - Rock Bottom
TTITLE14=Alvin Stardust - Pretend
TTITLE15=Kincade - Dreams Are Ten A Penny
TTITLE16=Neil Christian - That's Nice
TTITLE17=5000 Volts - I'm On Fire
TTITLE18=Goombay Dance Band - Seven Tears
TTITLE19=Linda and The Funky Boys - Shame, Shame, Shame
EXTD=
EXTT0=Chris Andrews
EXTT1=The Archies
EXTT2=Daniel Boone
EXTT3=Flowerpot Men
EXTT4=Kenny
EXTT5=Procol Harum
EXTT6=Two Man Sound
EXTT7=The Equals
EXTT8=Oliver Onions
EXTT9=Tina Charles
EXTT10=David Dundas
EXTT11=Desmond Dekker
EXTT12=Clout
EXTT13=Lynsey de Paul and Mike Moran
EXTT14=Alvin Stardust
EXTT15=Kincade
EXTT16=Neil Christian
EXTT17=5000 Volts
EXTT18=Goombay Dance Band
EXTT19=Linda and The Funky Boys
PLAYORDER=
